# xmcd
#
# Track frame offsets:
#	183
#	13360
#	25715
#	40203
#	54253
#	69313
#	86878
#	99990
#	118200
#	132600
#	146765
#	163418
#	178405
#	197155
#	214933
#	230093
#	245270
#
# Disc length: 3504 seconds
#
# Revision: 2
# Processed by: cddbd v1.5.2PL0 Copyright (c) Steve Scherf et al.
# Submitted via: audiograbber 1.83.01
#
DISCID=050dae11
DTITLE=Kenny Rogers - Country Classics - CD3
DYEAR=1993
DGENRE=Country
TTITLE0=We Love Each Other
TTITLE1=Baby I'm A-Want You
TTITLE2=You Needed Me
TTITLE3=All I Ever Need is You
TTITLE4=Share Your Love With Me
TTITLE5=We've Got Tonight
TTITLE6=You Are So Beautiful
TTITLE7=While The Feeling's Good
TTITLE8=Hey Won't You Play Another Somebody Done Somebody Wrong Song
TTITLE9=Today I Started Loving You Again
TTITLE10=Don't Fall In Love With A Dreamer
TTITLE11=A Love Song
TTITLE12=You've Lost That Lovin' Feelin'
TTITLE13=What I Learned From Loving You
TTITLE14='Till I Can Make It On My Own
TTITLE15=Why Don't We Go Somewhere And Love
TTITLE16=All My Life
EXTD=
EXTT0=
EXTT1=
EXTT2=
EXTT3=
EXTT4=
EXTT5=
EXTT6=
EXTT7=
EXTT8=
EXTT9=
EXTT10=
EXTT11=
EXTT12=
EXTT13=
EXTT14=
EXTT15=
EXTT16=
PLAYORDER=
